<svg xmlns="http://www.w3.org/2000/svg" version="1.1" xmlns:xlink="http://www.w3.org/1999/xlink" width="96" height="96" viewBox="0 0 25.4 25.4"><metadata><rdf:RDF xmlns:rdf="http://www.w3.org/1999/02/22-rdf-syntax-ns#" xmlns:dc="http://purl.org/dc/elements/1.1/"><rdf:Description><dc:creator>RealFaviconGenerator</dc:creator><dc:source>https://realfavicongenerator.net</dc:source></rdf:Description></rdf:RDF></metadata><defs>
		<linearGradient id="head">
			<stop style="stop-color:#4dcb3b" offset="0"></stop>
			<stop style="stop-color:#9ed13d" offset="1"></stop>
		</linearGradient>
		<linearGradient id="offshoot">
			<stop style="stop-color:#47ca3b" offset="0"></stop>
			<stop style="stop-color:#7edf41" offset="1"></stop>
		</linearGradient>
		<linearGradient id="stalk">
			<stop style="stop-color:#aa2307;stop-opacity:0" offset=".037707"></stop>
			<stop style="stop-color:#ca2a0a" offset=".29754"></stop>
		</linearGradient>
		<linearGradient id="petal">
			<stop style="stop-color:#a82307" offset="0"></stop>
			<stop style="stop-color:#c02809" offset=".3997"></stop>
			<stop style="stop-color:#ca2a0a" offset="1"></stop>
		</linearGradient>
		<linearGradient id="curl">
			<stop style="stop-color:#851c07" offset="0"></stop>
			<stop style="stop-color:#ca2a0a" offset=".78281"></stop>
		</linearGradient>
		<linearGradient id="linearGradient6744" x1="12.171" x2="14.227" y1="21.33" y2="21.33" gradientUnits="userSpaceOnUse" xlink:href="#curl"></linearGradient>
		<linearGradient id="linearGradient6852" x1="9.7024" x2="13.892" y1="21.261" y2="21.261" gradientUnits="userSpaceOnUse" xlink:href="#petal"></linearGradient>
		<linearGradient id="linearGradient8069" x1="11.195" x2="11.471" y1="21.584" y2="22.843" gradientUnits="userSpaceOnUse" xlink:href="#stalk"></linearGradient>
		<linearGradient id="linearGradient10603" x1="7.2482" x2="11.127" y1="18.39" y2="19.493" gradientTransform="matrix(1.078 0 0 1.0779 -.90561 -.99854)" gradientUnits="userSpaceOnUse" xlink:href="#offshoot"></linearGradient>
		<linearGradient id="linearGradient10749" x1="7.2482" x2="10.43" y1="18.39" y2="18.13" gradientTransform="matrix(1.078 0 0 1.0779 -.90561 -.99854)" gradientUnits="userSpaceOnUse" xlink:href="#offshoot"></linearGradient>
		<linearGradient id="linearGradient10757" x1="7.2482" x2="11.3" y1="18.39" y2="16.85" gradientTransform="matrix(1.078 0 0 1.0779 -.90561 -.99854)" gradientUnits="userSpaceOnUse" xlink:href="#offshoot"></linearGradient>
		<linearGradient id="linearGradient10765" x1="7.2482" x2="10.036" y1="18.39" y2="15.906" gradientTransform="matrix(1.078 0 0 1.0779 -.90561 -.99854)" gradientUnits="userSpaceOnUse" xlink:href="#offshoot"></linearGradient>
		<linearGradient id="linearGradient10773" x1="7.2482" x2="9.4278" y1="18.39" y2="14.696" gradientTransform="matrix(1.078 0 0 1.0779 -.90561 -.99854)" gradientUnits="userSpaceOnUse" xlink:href="#offshoot"></linearGradient>
		<linearGradient id="linearGradient10781" x1="7.2482" x2="7.7492" y1="18.39" y2="15.367" gradientTransform="matrix(1.078 0 0 1.0779 -.90561 -.99854)" gradientUnits="userSpaceOnUse" xlink:href="#offshoot"></linearGradient>
		<linearGradient id="linearGradient10789" x1="7.2482" x2="6.7054" y1="18.39" y2="13.63" gradientTransform="matrix(1.078 0 0 1.0779 -.90561 -.99854)" gradientUnits="userSpaceOnUse" xlink:href="#offshoot"></linearGradient>
		<linearGradient id="linearGradient10797" x1="7.2482" x2="5.5997" y1="18.39" y2="15.265" gradientTransform="matrix(1.078 0 0 1.0779 -.90561 -.99854)" gradientUnits="userSpaceOnUse" xlink:href="#offshoot"></linearGradient>
		<linearGradient id="linearGradient10805" x1="1.5667" x2="7.2482" y1="25.956" y2="18.39" gradientTransform="matrix(1.078 0 0 1.0779 -.90561 -.99854)" gradientUnits="userSpaceOnUse">
			<stop style="stop-color:#3fc63a" offset="0"></stop>
			<stop style="stop-color:#47ca3b" offset="1"></stop>
		</linearGradient>
		<linearGradient id="linearGradient11286" x1="20.64" x2="21.649" y1="22.844" y2="22.844" gradientUnits="userSpaceOnUse" xlink:href="#head"></linearGradient>
		<linearGradient id="linearGradient11294" x1="20.64" x2="21.649" y1="22.844" y2="22.844" gradientUnits="userSpaceOnUse" xlink:href="#head"></linearGradient>
	</defs><g style="display:none">
		<circle cx="12.7" cy="12.7" r="12.7" style="fill:#2b421b;paint-order:markers fill stroke;stop-color:#000000"></circle>
	</g><path d="m0.78331 26.98c1.2799-2.6559 3.243-5.5754 6.1248-8.1556" style="fill:none;paint-order:markers fill stroke;stop-color:#000000;stroke-dashoffset:2.8724;stroke-linecap:round;stroke-linejoin:round;stroke-miterlimit:10.1;stroke-width:.4;stroke:url(#linearGradient10805)"></path><path d="m6.9081 18.824c-0.31604-1.1609-1.2245-2.6216-1.7771-3.3686" style="fill:none;paint-order:markers fill stroke;stop-color:#000000;stroke-dashoffset:2.8724;stroke-linecap:round;stroke-linejoin:round;stroke-miterlimit:10.1;stroke-width:.4;stroke:url(#linearGradient10797)"></path><path d="m6.323 13.694c0.53738 1.7102 0.64509 3.4204 0.5851 5.1306" style="fill:none;paint-order:markers fill stroke;stop-color:#000000;stroke-dashoffset:2.8724;stroke-linecap:round;stroke-linejoin:round;stroke-miterlimit:10.1;stroke-width:.4;stroke:url(#linearGradient10789)"></path><path d="m7.4482 15.566c0.022674 1.303-0.1428 2.075-0.54009 3.2581" style="fill:none;mix-blend-mode:normal;paint-order:markers fill stroke;stop-color:#000000;stroke-dashoffset:2.8724;stroke-linecap:round;stroke-linejoin:round;stroke-miterlimit:10.1;stroke-width:.4;stroke:url(#linearGradient10781)"></path><path d="m9.2578 14.843c-0.5324 1.3277-1.6781 2.5617-2.3497 3.9813" style="fill:none;paint-order:markers fill stroke;stop-color:#000000;stroke-dashoffset:2.8724;stroke-linecap:round;stroke-linejoin:round;stroke-miterlimit:10.1;stroke-width:.4;stroke:url(#linearGradient10773)"></path><path d="m9.9136 16.147c-1.2016 0.70669-1.9775 1.7043-3.0055 2.6778" style="fill:none;paint-order:markers fill stroke;stop-color:#000000;stroke-dashoffset:2.8724;stroke-linecap:round;stroke-linejoin:round;stroke-miterlimit:10.1;stroke-width:.4;stroke:url(#linearGradient10765)"></path><path d="m11.277 17.165c-1.5483 0.18882-2.9984 0.81721-4.3684 1.6597" style="fill:none;paint-order:markers fill stroke;stop-color:#000000;stroke-dashoffset:2.8724;stroke-linecap:round;stroke-linejoin:round;stroke-miterlimit:10.1;stroke-width:.4;stroke:url(#linearGradient10757)"></path><path d="m10.338 18.544c-1.0427-0.18316-2.3877-0.074627-3.4303 0.28049" style="fill:none;paint-order:markers fill stroke;stop-color:#000000;stroke-dashoffset:2.8724;stroke-linecap:round;stroke-linejoin:round;stroke-miterlimit:10.1;stroke-width:.4;stroke:url(#linearGradient10749)"></path><path d="m11.089 20.014c-1.2452-0.60826-2.936-1.0451-4.1812-1.1892" style="fill:none;paint-order:markers fill stroke;stop-color:#000000;stroke-dashoffset:2.8724;stroke-linecap:round;stroke-linejoin:round;stroke-miterlimit:10.1;stroke-width:.4;stroke:url(#linearGradient10603)"></path><g transform="matrix(.98683 0 0 .98678 1.2822 -.57267)" style="stroke-linejoin:round;stroke-width:1.0134">
		<path d="m10.898 21.772c2.8842 0.82009 7.084 1.3261 9.7456 1.1344" style="fill:none;mix-blend-mode:normal;paint-order:markers fill stroke;stop-color:#000000;stroke-dashoffset:2.8724;stroke-linecap:round;stroke-linejoin:round;stroke-miterlimit:10.1;stroke-width:.40535;stroke:url(#linearGradient8069)"></path>
		<path d="m13.674 21.817c0.56017-0.19035 0.39892-0.68751-0.3198-0.90041-0.53465-0.15838-1.0428-0.0655-0.95478 0.40555" style="fill:url(#linearGradient6744);paint-order:markers fill stroke;stop-color:#000000;stroke-dashoffset:2.8724;stroke-linecap:round;stroke-linejoin:round;stroke-miterlimit:10.1;stroke-width:.40535;stroke:url(#linearGradient6744)"></path>
		<path d="m13.674 21.817c-0.6729 0.35784-4.0326 0.15538-3.7359-0.95472 0.26219-0.98126 2.2797 0.5872 3.7359 0.95472z" style="fill:url(#linearGradient6852);paint-order:markers fill stroke;stop-color:#000000;stroke-dashoffset:2.8724;stroke-linecap:round;stroke-linejoin:round;stroke-miterlimit:10.1;stroke-width:.40535;stroke:url(#linearGradient6852)"></path>
		<path d="m10.898 21.772c2.8842 0.82009 7.084 1.3261 9.7456 1.1344" style="fill:none;mix-blend-mode:luminosity;paint-order:markers fill stroke;stop-color:#000000;stroke-dashoffset:2.8724;stroke-linecap:round;stroke-linejoin:round;stroke-miterlimit:10.1;stroke-width:.40535;stroke:url(#linearGradient8069)"></path>
		<circle cx="21.144" cy="22.844" r=".50424" style="fill:url(#linearGradient11294);paint-order:markers fill stroke;stop-color:#000000"></circle>
	</g><g transform="matrix(.95985 -.22915 .22918 .9598 -3.9817 .79767)" style="stroke-linejoin:round;stroke-width:1.0134">
		<path d="m10.898 21.772c2.8842 0.82009 7.084 1.3261 9.7456 1.1344" style="fill:none;mix-blend-mode:normal;paint-order:markers fill stroke;stop-color:#000000;stroke-dashoffset:2.8724;stroke-linecap:round;stroke-linejoin:round;stroke-miterlimit:10.1;stroke-width:.40535;stroke:url(#linearGradient8069)"></path>
		<path d="m13.674 21.817c0.56017-0.19035 0.39892-0.68751-0.3198-0.90041-0.53465-0.15838-1.0428-0.0655-0.95478 0.40555" style="fill:url(#linearGradient6744);paint-order:markers fill stroke;stop-color:#000000;stroke-dashoffset:2.8724;stroke-linecap:round;stroke-linejoin:round;stroke-miterlimit:10.1;stroke-width:.40535;stroke:url(#linearGradient6744)"></path>
		<path d="m13.674 21.817c-0.6729 0.35784-4.0326 0.15538-3.7359-0.95472 0.26219-0.98126 2.2797 0.5872 3.7359 0.95472z" style="fill:url(#linearGradient6852);paint-order:markers fill stroke;stop-color:#000000;stroke-dashoffset:2.8724;stroke-linecap:round;stroke-linejoin:round;stroke-miterlimit:10.1;stroke-width:.40535;stroke:url(#linearGradient6852)"></path>
		<path d="m10.898 21.772c2.8842 0.82009 7.084 1.3261 9.7456 1.1344" style="fill:none;mix-blend-mode:luminosity;paint-order:markers fill stroke;stop-color:#000000;stroke-dashoffset:2.8724;stroke-linecap:round;stroke-linejoin:round;stroke-miterlimit:10.1;stroke-width:.40535;stroke:url(#linearGradient8069)"></path>
		<circle cx="21.144" cy="22.844" r=".50424" style="fill:url(#linearGradient11294);paint-order:markers fill stroke;stop-color:#000000"></circle>
	</g><g transform="matrix(.78755 -.59458 .59466 .78751 -8.956 6.6444)" style="stroke-linejoin:round;stroke-width:1.0134">
		<path d="m10.898 21.772c2.8842 0.82009 7.084 1.3261 9.7456 1.1344" style="fill:none;mix-blend-mode:normal;paint-order:markers fill stroke;stop-color:#000000;stroke-dashoffset:2.8724;stroke-linecap:round;stroke-linejoin:round;stroke-miterlimit:10.1;stroke-width:.40535;stroke:url(#linearGradient8069)"></path>
		<path d="m13.674 21.817c0.56017-0.19035 0.39892-0.68751-0.3198-0.90041-0.53465-0.15838-1.0428-0.0655-0.95478 0.40555" style="fill:url(#linearGradient6744);paint-order:markers fill stroke;stop-color:#000000;stroke-dashoffset:2.8724;stroke-linecap:round;stroke-linejoin:round;stroke-miterlimit:10.1;stroke-width:.40535;stroke:url(#linearGradient6744)"></path>
		<path d="m13.674 21.817c-0.6729 0.35784-4.0326 0.15538-3.7359-0.95472 0.26219-0.98126 2.2797 0.5872 3.7359 0.95472z" style="fill:url(#linearGradient6852);paint-order:markers fill stroke;stop-color:#000000;stroke-dashoffset:2.8724;stroke-linecap:round;stroke-linejoin:round;stroke-miterlimit:10.1;stroke-width:.40535;stroke:url(#linearGradient6852)"></path>
		<path d="m10.898 21.772c2.8842 0.82009 7.084 1.3261 9.7456 1.1344" style="fill:none;mix-blend-mode:luminosity;paint-order:markers fill stroke;stop-color:#000000;stroke-dashoffset:2.8724;stroke-linecap:round;stroke-linejoin:round;stroke-miterlimit:10.1;stroke-width:.40535;stroke:url(#linearGradient8069)"></path>
		<circle cx="21.144" cy="22.844" r=".50424" style="fill:url(#linearGradient11294);paint-order:markers fill stroke;stop-color:#000000"></circle>
	</g><g transform="matrix(.55073 -.81878 -.81888 -.55071 20.868 34.469)" style="stroke-linejoin:round;stroke-width:1.0134">
		<path d="m10.898 21.772c2.8842 0.82009 7.084 1.3261 9.7456 1.1344" style="fill:none;mix-blend-mode:normal;paint-order:markers fill stroke;stop-color:#000000;stroke-dashoffset:2.8724;stroke-linecap:round;stroke-linejoin:round;stroke-miterlimit:10.1;stroke-width:.40535;stroke:url(#linearGradient8069)"></path>
		<path d="m13.674 21.817c0.40391-0.21052-0.17652-0.57643-0.61722-0.75018-0.51876-0.20452-0.91984-0.12933-0.82622 0.17564" style="fill:url(#linearGradient6744);paint-order:markers fill stroke;stop-color:#000000;stroke-dashoffset:2.8724;stroke-linecap:round;stroke-linejoin:round;stroke-miterlimit:10.1;stroke-width:.40535;stroke:url(#linearGradient6744)"></path>
		<path d="m13.674 21.817c-0.6729 0.35784-4.0326 0.15538-3.7359-0.95472 0.26219-0.98126 2.2797 0.5872 3.7359 0.95472z" style="fill:url(#linearGradient6852);paint-order:markers fill stroke;stop-color:#000000;stroke-dashoffset:2.8724;stroke-linecap:round;stroke-linejoin:round;stroke-miterlimit:10.1;stroke-width:.40535;stroke:url(#linearGradient6852)"></path>
		<path d="m10.898 21.772c2.8842 0.82009 7.084 1.3261 9.7456 1.1344" style="fill:none;mix-blend-mode:luminosity;paint-order:markers fill stroke;stop-color:#000000;stroke-dashoffset:2.8724;stroke-linecap:round;stroke-linejoin:round;stroke-miterlimit:10.1;stroke-width:.40535;stroke:url(#linearGradient8069)"></path>
		<circle cx="21.144" cy="22.844" r=".50424" style="fill:url(#linearGradient11294);paint-order:markers fill stroke;stop-color:#000000"></circle>
	</g><g transform="matrix(.3801 -.91061 -.91072 -.38008 22.67 32.545)" style="stroke-linejoin:round;stroke-width:1.0134">
		<path d="m10.898 21.772c2.8842 0.82009 7.084 1.3261 9.7456 1.1344" style="fill:none;mix-blend-mode:normal;paint-order:markers fill stroke;stop-color:#000000;stroke-dashoffset:2.8724;stroke-linecap:round;stroke-linejoin:round;stroke-miterlimit:10.1;stroke-width:.40535;stroke:url(#linearGradient8069)"></path>
		<path d="m13.674 21.817c0.56017-0.19035 0.39892-0.68751-0.3198-0.90041-0.53465-0.15838-1.0428-0.0655-0.95478 0.40555" style="fill:url(#linearGradient6744);paint-order:markers fill stroke;stop-color:#000000;stroke-dashoffset:2.8724;stroke-linecap:round;stroke-linejoin:round;stroke-miterlimit:10.1;stroke-width:.40535;stroke:url(#linearGradient6744)"></path>
		<path d="m13.674 21.817c-0.6729 0.35784-4.0326 0.15538-3.7359-0.95472 0.26219-0.98126 2.2797 0.5872 3.7359 0.95472z" style="fill:url(#linearGradient6852);paint-order:markers fill stroke;stop-color:#000000;stroke-dashoffset:2.8724;stroke-linecap:round;stroke-linejoin:round;stroke-miterlimit:10.1;stroke-width:.40535;stroke:url(#linearGradient6852)"></path>
		<path d="m10.898 21.772c2.8842 0.82009 7.084 1.3261 9.7456 1.1344" style="fill:none;mix-blend-mode:luminosity;paint-order:markers fill stroke;stop-color:#000000;stroke-dashoffset:2.8724;stroke-linecap:round;stroke-linejoin:round;stroke-miterlimit:10.1;stroke-width:.40535;stroke:url(#linearGradient8069)"></path>
		<circle cx="21.144" cy="22.844" r=".50424" style="fill:url(#linearGradient11294);paint-order:markers fill stroke;stop-color:#000000"></circle>
	</g><g transform="matrix(.097495 -.98191 -.98204 -.09749 25.842 25.486)" style="stroke-linejoin:round;stroke-width:1.0134">
		<path d="m10.898 21.772c2.8842 0.82009 7.084 1.3261 9.7456 1.1344" style="fill:none;mix-blend-mode:normal;paint-order:markers fill stroke;stop-color:#000000;stroke-dashoffset:2.8724;stroke-linecap:round;stroke-linejoin:round;stroke-miterlimit:10.1;stroke-width:.40535;stroke:url(#linearGradient8069)"></path>
		<path d="m13.674 21.817c0.56017-0.19035 0.39892-0.68751-0.3198-0.90041-0.53465-0.15838-1.0428-0.0655-0.95478 0.40555" style="fill:url(#linearGradient6744);paint-order:markers fill stroke;stop-color:#000000;stroke-dashoffset:2.8724;stroke-linecap:round;stroke-linejoin:round;stroke-miterlimit:10.1;stroke-width:.40535;stroke:url(#linearGradient6744)"></path>
		<path d="m13.674 21.817c-0.6729 0.35784-4.0326 0.15538-3.7359-0.95472 0.26219-0.98126 2.2797 0.5872 3.7359 0.95472z" style="fill:url(#linearGradient6852);paint-order:markers fill stroke;stop-color:#000000;stroke-dashoffset:2.8724;stroke-linecap:round;stroke-linejoin:round;stroke-miterlimit:10.1;stroke-width:.40535;stroke:url(#linearGradient6852)"></path>
		<path d="m10.898 21.772c2.8842 0.82009 7.084 1.3261 9.7456 1.1344" style="fill:none;mix-blend-mode:luminosity;paint-order:markers fill stroke;stop-color:#000000;stroke-dashoffset:2.8724;stroke-linecap:round;stroke-linejoin:round;stroke-miterlimit:10.1;stroke-width:.40535;stroke:url(#linearGradient8069)"></path>
		<circle cx="21.144" cy="22.844" r=".50424" style="fill:url(#linearGradient11294);paint-order:markers fill stroke;stop-color:#000000"></circle>
	</g><g transform="matrix(-.066271 -.98451 -.98464 .066268 26.331 23.857)" style="stroke-linejoin:round;stroke-width:1.0134">
		<path d="m10.898 21.772c2.8842 0.82009 7.084 1.3261 9.7456 1.1344" style="fill:none;mix-blend-mode:normal;paint-order:markers fill stroke;stop-color:#000000;stroke-dashoffset:2.8724;stroke-linecap:round;stroke-linejoin:round;stroke-miterlimit:10.1;stroke-width:.40535;stroke:url(#linearGradient8069)"></path>
		<path d="m13.674 21.817c0.56017-0.19035 0.39892-0.68751-0.3198-0.90041-0.53465-0.15838-1.0428-0.0655-0.95478 0.40555" style="fill:url(#linearGradient6744);paint-order:markers fill stroke;stop-color:#000000;stroke-dashoffset:2.8724;stroke-linecap:round;stroke-linejoin:round;stroke-miterlimit:10.1;stroke-width:.40535;stroke:url(#linearGradient6744)"></path>
		<path d="m13.674 21.817c-0.6729 0.35784-4.0326 0.15538-3.7359-0.95472 0.26219-0.98126 2.2797 0.5872 3.7359 0.95472z" style="fill:url(#linearGradient6852);paint-order:markers fill stroke;stop-color:#000000;stroke-dashoffset:2.8724;stroke-linecap:round;stroke-linejoin:round;stroke-miterlimit:10.1;stroke-width:.40535;stroke:url(#linearGradient6852)"></path>
		<path d="m10.898 21.772c2.8842 0.82009 7.084 1.3261 9.7456 1.1344" style="fill:none;mix-blend-mode:luminosity;paint-order:markers fill stroke;stop-color:#000000;stroke-dashoffset:2.8724;stroke-linecap:round;stroke-linejoin:round;stroke-miterlimit:10.1;stroke-width:.40535;stroke:url(#linearGradient8069)"></path>
		<circle cx="21.144" cy="22.844" r=".50424" style="fill:url(#linearGradient11286);paint-order:markers fill stroke;stop-color:#000000"></circle>
	</g><g transform="matrix(.5075 -.84626 .84636 .50747 -12.787 13.97)" style="stroke-linejoin:round;stroke-width:1.0134">
		<path d="m10.898 21.772c2.8842 0.82009 7.084 1.3261 9.7456 1.1344" style="fill:none;mix-blend-mode:normal;paint-order:markers fill stroke;stop-color:#000000;stroke-dashoffset:2.8724;stroke-linecap:round;stroke-linejoin:round;stroke-miterlimit:10.1;stroke-width:.40535;stroke:url(#linearGradient8069)"></path>
		<path d="m13.674 21.817c0.48466-0.24776-0.15326-0.65497-0.58128-0.80942-0.52451-0.18927-0.99404-0.1488-0.8531 0.23919" style="fill:url(#linearGradient6744);paint-order:markers fill stroke;stop-color:#000000;stroke-dashoffset:2.8724;stroke-linecap:round;stroke-linejoin:round;stroke-miterlimit:10.1;stroke-width:.40535;stroke:url(#linearGradient6744)"></path>
		<path d="m13.674 21.817c-0.6729 0.35784-4.0326 0.15538-3.7359-0.95472 0.26219-0.98126 2.2797 0.5872 3.7359 0.95472z" style="fill:url(#linearGradient6852);paint-order:markers fill stroke;stop-color:#000000;stroke-dashoffset:2.8724;stroke-linecap:round;stroke-linejoin:round;stroke-miterlimit:10.1;stroke-width:.40535;stroke:url(#linearGradient6852)"></path>
		<path d="m10.898 21.772c2.8842 0.82009 7.084 1.3261 9.7456 1.1344" style="fill:none;mix-blend-mode:luminosity;paint-order:markers fill stroke;stop-color:#000000;stroke-dashoffset:2.8724;stroke-linecap:round;stroke-linejoin:round;stroke-miterlimit:10.1;stroke-width:.40535;stroke:url(#linearGradient8069)"></path>
		<circle cx="21.144" cy="22.844" r=".50424" style="fill:url(#linearGradient11294);paint-order:markers fill stroke;stop-color:#000000"></circle>
	</g><style>@media (prefers-color-scheme: light) { :root { filter: none; } }
@media (prefers-color-scheme: dark) { :root { filter: contrast(1) brightness(1); } }
</style></svg>